<?xml version="1.0" encoding="UTF-8"?>
<svg id="Layer_1" xmlns="http://www.w3.org/2000/svg" version="1.1" viewBox="0 0 196.7 198">
  <!-- Generator: Adobe Illustrator 30.2.1, SVG Export Plug-In . SVG Version: 2.1.1 Build 1)  -->
  <defs>
    <style>
      .st0 {
        fill: #fff;
      }
    </style>
  </defs>
  <path class="st0" d="M112.4,98.6c0,0,0,.2,0,.3h0c0,0,0-.3,0-.3ZM140.4,99v-.4.4ZM140.4,99.4v-.4.4h0ZM84.3,99c0,0,0-.1,0-.2v-.2.4ZM56.2,98.6v.4-.4ZM140.5,99.9v-2.8c.3-1.7.8-3.3,1.7-4.8.8-1.5,1.8-2.8,3.1-3.9,1.3-1.1,2.7-2,4.3-2.6,1.6-.6,3.2-.9,4.9-.9h.2c.9,0,1.8-.1,2.7-.3.9-.2,1.8-.5,2.6-.8.8-.4,1.6-.8,2.4-1.3.8-.5,1.5-1.1,2.1-1.8.6-.7,1.2-1.4,1.7-2.2.5-.8.9-1.6,1.3-2.4.3-.9.6-1.7.8-2.6.2-.9.2-1.8.2-2.7,0-.9-.1-1.8-.3-2.7-.2-.9-.5-1.8-.8-2.6-.4-.9-.8-1.7-1.3-2.4-.5-.8-1.1-1.5-1.8-2.1-.7-.6-1.4-1.2-2.1-1.7-.8-.5-1.6-.9-2.4-1.3-.9-.3-1.7-.6-2.6-.8-.9-.2-1.8-.3-2.7-.3-.9,0-1.8.1-2.7.3-.9.2-1.8.5-2.6.8-.8.4-1.7.8-2.4,1.3-.8.5-1.5,1.1-2.1,1.8-.6.7-1.2,1.4-1.7,2.1-.5.8-.9,1.6-1.3,2.4-.4.9-.6,1.7-.8,2.6-.2.9-.3,1.8-.3,2.7,0,.9-.1,1.8-.3,2.7-.2.9-.5,1.7-.8,2.6-.4.8-.8,1.6-1.3,2.4-.5.7-1.1,1.4-1.7,2.1-.6.6-1.4,1.2-2.1,1.7-.8.5-1.6.9-2.4,1.3-.8.3-1.7.6-2.6.8-.9.2-1.8.3-2.7.3s-1.8,0-2.7-.3c-.9-.2-1.8-.4-2.6-.8-.8-.3-1.6-.8-2.4-1.3-.8-.5-1.5-1.1-2.1-1.7-.7-.6-1.2-1.3-1.7-2.1-.5-.8-1-1.5-1.3-2.4-.4-.8-.6-1.7-.8-2.6-.2-.9-.3-1.8-.3-2.7,0-.9-.1-1.8-.3-2.7-.2-.9-.5-1.8-.8-2.6s-.8-1.6-1.3-2.4c-.5-.7-1.1-1.4-1.7-2.1-.6-.6-1.3-1.2-2.1-1.7-.8-.5-1.6-.9-2.4-1.3-.8-.3-1.7-.6-2.6-.8-.9-.2-1.8-.3-2.7-.3s-1.8,0-2.7.3c-.9.2-1.8.4-2.6.8-.8.3-1.6.8-2.4,1.3-.8.5-1.5,1.1-2.1,1.7-.6.6-1.2,1.3-1.7,2.1-.5.7-1,1.5-1.3,2.4-.4.8-.6,1.7-.8,2.6-.2.9-.3,1.8-.3,2.7,0,.9,0,1.8-.3,2.8-.2.9-.4,1.8-.8,2.6-.4.9-.8,1.7-1.3,2.4-.5.8-1.1,1.5-1.7,2.1-.7.7-1.4,1.2-2.1,1.8-.8.5-1.6,1-2.4,1.3-.8.4-1.7.6-2.6.8-.9.2-1.8.3-2.7.3s-1.8,0-2.7-.3c-.9-.2-1.8-.4-2.6-.8-.9-.4-1.7-.8-2.4-1.3-.8-.5-1.5-1.1-2.1-1.8-.7-.7-1.2-1.4-1.7-2.1-.5-.8-.9-1.6-1.3-2.4-.4-.9-.6-1.7-.8-2.6-.2-.9-.3-1.8-.3-2.8s0-1.8-.3-2.7c-.2-.9-.4-1.8-.8-2.6-.4-.9-.8-1.7-1.3-2.4-.5-.8-1.1-1.5-1.7-2.1-.6-.7-1.4-1.2-2.1-1.8-.8-.5-1.6-1-2.4-1.3-.8-.4-1.7-.6-2.6-.8-.9-.2-1.8-.3-2.7-.3-.9,0-1.8,0-2.7.3-.9.2-1.8.4-2.6.8-.9.4-1.7.8-2.4,1.3-.8.5-1.5,1.1-2.1,1.7-.7.6-1.2,1.4-1.8,2.1-.5.8-1,1.6-1.3,2.4s-.6,1.7-.8,2.6c-.2.9-.3,1.8-.3,2.7,0,.9,0,1.8.2,2.8.2.9.4,1.8.8,2.6.3.9.8,1.7,1.3,2.4.5.8,1.1,1.5,1.7,2.2.6.7,1.3,1.3,2.1,1.8.8.5,1.6,1,2.4,1.3.8.4,1.7.6,2.6.8.9.2,1.8.3,2.7.3h.2c1.7,0,3.3.3,4.9.9,1.6.6,3,1.5,4.3,2.6,1.3,1.1,2.3,2.4,3.1,3.9.8,1.5,1.3,3.1,1.5,4.8v1c.1,0,.1.8.1.8v.4-.4,1.9c-.3,1.7-.8,3.3-1.6,4.8-.8,1.5-1.8,2.8-3.1,3.9-1.3,1.1-2.7,2-4.3,2.6-1.6.6-3.2.9-4.9.9h-.2c-.9,0-1.8.1-2.7.3-.9.2-1.8.5-2.6.8-.8.4-1.6.8-2.4,1.3-.8.5-1.5,1.1-2.1,1.8-.6.7-1.2,1.4-1.7,2.2-.5.8-.9,1.6-1.3,2.4-.3.9-.6,1.7-.8,2.6-.2.9-.2,1.8-.2,2.7,0,.9.1,1.8.3,2.7.2.9.5,1.8.8,2.6.4.9.8,1.7,1.3,2.4.5.8,1.1,1.5,1.8,2.1.7.6,1.4,1.2,2.1,1.7.8.5,1.6.9,2.4,1.3.9.3,1.7.6,2.6.8.9.2,1.8.3,2.7.3.9,0,1.8-.1,2.7-.3.9-.2,1.8-.5,2.6-.8.8-.4,1.6-.8,2.4-1.3.8-.5,1.5-1.1,2.1-1.8.6-.7,1.2-1.4,1.7-2.1.5-.8.9-1.6,1.3-2.4.3-.9.6-1.7.8-2.6.2-.9.3-1.8.3-2.7s0-1.8.3-2.8c.2-.9.4-1.8.8-2.6.4-.9.8-1.7,1.3-2.4.5-.8,1.1-1.5,1.7-2.1.7-.7,1.4-1.2,2.1-1.8.8-.5,1.6-.9,2.4-1.3.8-.4,1.7-.6,2.6-.8.9-.2,1.8-.3,2.7-.3s1.8,0,2.7.3c.9.2,1.8.5,2.6.8.8.4,1.7.8,2.4,1.3.8.5,1.5,1.1,2.1,1.8.7.7,1.2,1.4,1.7,2.1.5.8.9,1.6,1.3,2.4.4.9.6,1.7.8,2.6.2.9.3,1.8.3,2.8,0,.9,0,1.8.3,2.7.2.9.4,1.8.8,2.6.3.9.8,1.7,1.3,2.4.5.8,1.1,1.5,1.7,2.1.6.7,1.4,1.2,2.1,1.8.8.5,1.6,1,2.4,1.3.8.4,1.7.6,2.6.8.9.2,1.8.3,2.7.3.9,0,1.8,0,2.7-.3.9-.2,1.8-.4,2.6-.8.9-.3,1.7-.8,2.4-1.3.8-.5,1.5-1.1,2.1-1.7.7-.6,1.2-1.4,1.8-2.1.5-.8,1-1.6,1.3-2.4.4-.9.6-1.7.8-2.6.2-.9.3-1.8.3-2.7,0-.9,0-1.8-.2-2.7-.2-.9-.4-1.8-.8-2.6-.3-.9-.8-1.7-1.3-2.5-.5-.8-1.1-1.5-1.7-2.2-.6-.7-1.3-1.3-2.1-1.8-.8-.5-1.6-1-2.4-1.3-.8-.4-1.7-.6-2.6-.8-.9-.2-1.8-.3-2.7-.3h-.2c-1.7,0-3.3-.3-4.9-.9-1.6-.6-3-1.5-4.3-2.6-1.3-1.1-2.3-2.4-3.1-3.9-.8-1.5-1.3-3.1-1.5-4.8v-1.1c-.1,0-.1-.9-.1-.9v.4-2.3c.3-1.7.9-3.3,1.7-4.8.8-1.5,1.8-2.8,3.1-3.9,1.3-1.1,2.7-2,4.3-2.6,1.6-.6,3.2-.9,4.9-.9s3.3.3,4.9.9c1.6.6,3,1.4,4.3,2.6,1.3,1.1,2.3,2.4,3.1,3.9.8,1.5,1.3,3.1,1.6,4.8v1c0,0,0,.8,0,.8v1.4c0,.2,0,.4.1.6,0,.2,0,.5.1.7.1.2.1.5.2.8,0,.3,0,.4.2.6,0,.2.2.6.3.8.1.3.1.3.2.5,0,.2.3.6.4.9,0,.1.1.2.2.3.2.3.4.6.5.9,0,0,0,.2.2.2.2.3.4.7.7,1h0c.3.5.6.8.8,1.1,1.3,1.3,2.8,2.3,4.5,3.1,1.7.7,3.4,1.1,5.3,1.1h.3c.9,0,1.8,0,2.7.3.9.2,1.8.4,2.6.8.9.4,1.7.8,2.4,1.3.8.5,1.5,1.1,2.1,1.8.7.7,1.2,1.4,1.7,2.1.5.8.9,1.6,1.3,2.4.4.9.6,1.7.8,2.6.2.9.3,1.8.3,2.8s0,1.8.3,2.7c.2.9.4,1.8.8,2.6.3.9.8,1.7,1.3,2.4.5.8,1.1,1.5,1.7,2.1.6.7,1.4,1.2,2.1,1.8.8.5,1.6,1,2.4,1.3.8.4,1.7.6,2.6.8.9.2,1.8.3,2.7.3.9,0,1.8,0,2.7-.3.9-.2,1.8-.4,2.6-.8.9-.3,1.7-.8,2.4-1.3.8-.5,1.5-1.1,2.1-1.7.7-.6,1.2-1.4,1.8-2.1.5-.8,1-1.6,1.3-2.4.4-.9.6-1.7.8-2.6.2-.9.3-1.8.3-2.7,0-.9,0-1.8-.2-2.7-.2-.9-.4-1.8-.8-2.7-.3-.9-.8-1.7-1.3-2.4-.5-.8-1.1-1.5-1.7-2.2-.6-.7-1.3-1.3-2.1-1.8-.8-.5-1.6-1-2.4-1.3-.8-.4-1.7-.6-2.6-.8-.9-.2-1.8-.3-2.7-.3h-.2c-1.7,0-3.3-.3-4.9-.9-1.6-.6-3-1.5-4.3-2.6-1.3-1.1-2.3-2.4-3.1-3.9-.8-1.5-1.3-3.1-1.5-4.8v-1Z"/>
  <path class="st0" d="M80.3,52.5c.7-.7,1.2-1.4,1.8-2.1.5-.8.9-1.6,1.3-2.4.4-.9.6-1.7.8-2.7.2-.9.3-1.8.3-2.8s0-1.9-.3-2.8c-.2-.9-.5-1.8-.8-2.7-.4-.9-.8-1.7-1.3-2.4-.5-.8-1.1-1.5-1.8-2.1-.7-.7-1.4-1.2-2.1-1.8-.8-.5-1.6-1-2.4-1.3-.9-.4-1.7-.6-2.6-.8-.9-.2-1.8-.3-2.7-.3s-1.8,0-2.7.3c-.9.2-1.8.5-2.6.8-.9.4-1.7.8-2.4,1.3-.8.5-1.5,1.1-2.1,1.8-.7.7-1.2,1.4-1.8,2.1-.5.8-.9,1.6-1.3,2.4-.4.9-.6,1.7-.8,2.7-.2.9-.3,1.8-.3,2.8s0,1.9.3,2.8c.2.9.4,1.8.8,2.7.4.9.8,1.7,1.3,2.4.5.8,1.1,1.5,1.7,2.1.7.7,1.4,1.2,2.1,1.8.8.5,1.6,1,2.4,1.3.9.4,1.7.6,2.6.8.9.2,1.8.3,2.7.3s1.8,0,2.7-.3c.9-.2,1.8-.5,2.6-.8.9-.4,1.7-.8,2.4-1.3.8-.5,1.5-1.1,2.1-1.8"/>
  <path class="st0" d="M108.3,24.2c.7-.7,1.2-1.4,1.8-2.1.5-.8.9-1.6,1.3-2.5.4-.9.6-1.7.8-2.7.2-.9.3-1.8.3-2.8s0-1.9-.3-2.8c-.2-.9-.4-1.8-.8-2.7-.4-.9-.8-1.7-1.3-2.5-.5-.8-1.1-1.5-1.8-2.1-.7-.7-1.4-1.2-2.1-1.8-.8-.5-1.6-1-2.4-1.3-.9-.4-1.7-.6-2.6-.8-.9-.2-1.8-.3-2.7-.3s-1.8,0-2.7.3c-.9.2-1.8.5-2.6.8-.9.4-1.7.8-2.4,1.3-.8.5-1.5,1.1-2.1,1.8-.7.7-1.2,1.4-1.8,2.1-.5.8-.9,1.6-1.3,2.5-.4.9-.6,1.7-.8,2.7-.2.9-.3,1.8-.3,2.8s0,1.9.3,2.8c.2.9.4,1.8.8,2.7.4.9.8,1.7,1.3,2.5.5.8,1.1,1.5,1.8,2.1.7.7,1.4,1.2,2.1,1.8.8.5,1.6,1,2.4,1.3.9.4,1.7.6,2.6.8.9.2,1.8.3,2.7.3s1.8,0,2.7-.3c.9-.2,1.8-.4,2.6-.8.9-.4,1.7-.8,2.4-1.3.8-.5,1.5-1.1,2.1-1.8"/>
  <path class="st0" d="M116.7,32.5c-.7.7-1.2,1.4-1.8,2.1-.5.8-.9,1.6-1.3,2.5-.4.9-.6,1.7-.8,2.7-.2.9-.3,1.8-.3,2.8s0,1.9.3,2.8c.2.9.4,1.8.8,2.7.4.9.8,1.7,1.3,2.5.5.8,1.1,1.5,1.8,2.1.7.7,1.4,1.2,2.1,1.8.8.5,1.6,1,2.4,1.3.9.4,1.7.6,2.6.8.9.2,1.8.3,2.8.3s1.8,0,2.8-.3c.9-.2,1.8-.5,2.6-.8.9-.4,1.7-.8,2.4-1.3.8-.5,1.5-1.1,2.1-1.8.7-.7,1.2-1.4,1.8-2.1.5-.8.9-1.6,1.3-2.5.4-.9.6-1.7.8-2.7.2-.9.3-1.8.3-2.8s0-1.9-.3-2.8c-.2-.9-.4-1.8-.8-2.7-.4-.9-.8-1.7-1.3-2.5s-1.1-1.5-1.8-2.1c-.7-.7-1.4-1.2-2.1-1.8-.8-.5-1.6-1-2.4-1.3-.9-.4-1.7-.6-2.6-.8-.9-.2-1.8-.3-2.7-.3s-1.8,0-2.7.3c-.9.2-1.8.4-2.6.8-.9.4-1.7.8-2.4,1.3-.8.5-1.5,1.1-2.1,1.8"/>
  <path class="st0" d="M172.6,88.7c-.7.7-1.2,1.4-1.8,2.1-.5.8-.9,1.6-1.3,2.5-.4.9-.6,1.7-.8,2.7-.2.9-.3,1.8-.3,2.8s0,1.9.3,2.8c.2.9.4,1.8.8,2.7.4.9.8,1.7,1.3,2.5.5.8,1.1,1.5,1.8,2.1.7.7,1.4,1.2,2.1,1.8.8.5,1.6,1,2.4,1.3.9.4,1.7.6,2.6.8.9.2,1.8.3,2.8.3s1.8,0,2.8-.3c.9-.2,1.8-.4,2.6-.8.9-.4,1.7-.8,2.4-1.3.8-.5,1.5-1.1,2.1-1.8.7-.7,1.2-1.4,1.8-2.1.5-.8.9-1.6,1.3-2.5.4-.9.6-1.7.8-2.7.2-.9.3-1.8.3-2.8s0-1.9-.3-2.8c-.2-.9-.4-1.8-.8-2.7-.4-.9-.8-1.7-1.3-2.5-.5-.8-1.1-1.5-1.8-2.1-.7-.7-1.4-1.2-2.1-1.8-.8-.5-1.6-1-2.4-1.3-.9-.4-1.7-.6-2.6-.8-.9-.2-1.8-.3-2.7-.3s-1.8,0-2.8.3c-.9.2-1.8.5-2.6.8-.9.4-1.7.8-2.4,1.3-.8.5-1.5,1.1-2.1,1.8"/>
  <path class="st0" d="M116.6,145.5c-.7.7-1.2,1.4-1.8,2.1-.5.8-.9,1.6-1.3,2.4-.4.9-.6,1.7-.8,2.7-.2.9-.3,1.8-.3,2.8s0,1.9.3,2.8c.2.9.4,1.8.8,2.7.4.9.8,1.7,1.3,2.5.5.8,1.1,1.5,1.8,2.1.7.7,1.4,1.2,2.1,1.8.8.5,1.6,1,2.4,1.3.9.4,1.7.6,2.6.8.9.2,1.8.3,2.7.3s1.8,0,2.7-.3c.9-.2,1.8-.4,2.6-.8.9-.4,1.7-.8,2.4-1.3.8-.5,1.5-1.1,2.1-1.8.7-.7,1.2-1.4,1.8-2.1.5-.8.9-1.6,1.3-2.5.4-.9.6-1.7.8-2.7.2-.9.3-1.8.3-2.8s0-1.9-.3-2.8c-.2-.9-.4-1.8-.8-2.7-.4-.9-.8-1.7-1.3-2.4-.5-.8-1.1-1.5-1.8-2.1-.7-.7-1.4-1.2-2.1-1.8-.8-.5-1.6-1-2.4-1.3-.9-.4-1.7-.6-2.6-.8-.9-.2-1.8-.3-2.7-.3s-1.8,0-2.7.3c-.9.2-1.8.5-2.6.8-.9.4-1.7.8-2.4,1.3-.8.5-1.5,1.1-2.1,1.8"/>
  <path class="st0" d="M88.4,173.9c-.7.7-1.2,1.4-1.8,2.1-.5.8-.9,1.6-1.3,2.5-.4.9-.6,1.7-.8,2.7-.2.9-.3,1.8-.3,2.8s0,1.9.3,2.8c.2.9.4,1.8.8,2.7.4.9.8,1.7,1.3,2.5.5.8,1.1,1.5,1.8,2.1.7.7,1.4,1.2,2.1,1.8.8.5,1.6,1,2.4,1.3.9.4,1.7.6,2.6.8.9.2,1.8.3,2.7.3s1.8,0,2.7-.3c.9-.2,1.8-.5,2.6-.8.9-.4,1.7-.8,2.4-1.3.8-.5,1.5-1.1,2.1-1.8.7-.7,1.2-1.4,1.8-2.1.5-.8.9-1.6,1.3-2.5.4-.9.6-1.7.8-2.7.2-.9.3-1.8.3-2.8s0-1.9-.3-2.8c-.2-.9-.4-1.8-.8-2.7-.4-.9-.8-1.7-1.3-2.5-.5-.8-1.1-1.5-1.8-2.1-.7-.7-1.4-1.2-2.1-1.8-.8-.5-1.6-1-2.4-1.3-.9-.4-1.7-.6-2.6-.8-.9-.2-1.8-.3-2.7-.3s-1.8,0-2.7.3c-.9.2-1.8.4-2.6.8-.9.4-1.7.8-2.4,1.3-.8.5-1.5,1.1-2.1,1.8"/>
  <path class="st0" d="M24,108.8c.7-.7,1.2-1.4,1.8-2.1.5-.8.9-1.6,1.3-2.5.4-.9.6-1.7.8-2.7.2-.9.3-1.8.3-2.8s0-1.9-.3-2.8c-.2-.9-.4-1.8-.8-2.7-.4-.9-.8-1.7-1.3-2.5-.5-.8-1.1-1.5-1.8-2.1-.7-.7-1.4-1.2-2.1-1.8-.8-.5-1.6-1-2.4-1.3-.9-.4-1.7-.6-2.6-.8-.9-.2-1.8-.3-2.7-.3s-1.8,0-2.7.3c-.9.2-1.8.5-2.6.8-.9.4-1.7.8-2.4,1.3-.8.5-1.5,1.1-2.1,1.8-.7.7-1.2,1.4-1.8,2.1-.5.8-.9,1.6-1.3,2.5-.4.9-.6,1.7-.8,2.7-.2.9-.3,1.8-.3,2.8s0,1.9.3,2.8c.2.9.4,1.8.8,2.7.4.9.8,1.7,1.3,2.5.5.8,1.1,1.5,1.8,2.1.7.7,1.4,1.2,2.1,1.8.8.5,1.6,1,2.4,1.3.9.4,1.7.6,2.6.8.9.2,1.8.3,2.7.3s1.8,0,2.7-.3c.9-.2,1.8-.4,2.6-.8.9-.4,1.7-.8,2.4-1.3.8-.5,1.5-1.1,2.1-1.8"/>
  <path class="st0" d="M60.3,145.5c-.7.7-1.2,1.4-1.8,2.1-.5.8-.9,1.6-1.3,2.4-.4.9-.6,1.7-.8,2.7-.2.9-.3,1.8-.3,2.8s0,1.9.3,2.8c.2.9.4,1.8.8,2.7.4.9.8,1.7,1.3,2.5.5.8,1.1,1.5,1.8,2.1.7.7,1.4,1.2,2.1,1.8.8.5,1.6,1,2.4,1.3.9.4,1.7.6,2.6.8.9.2,1.8.3,2.7.3s1.8,0,2.7-.3c.9-.2,1.8-.4,2.6-.8.9-.4,1.7-.8,2.4-1.3.8-.5,1.5-1.1,2.1-1.8.7-.7,1.2-1.4,1.8-2.1.5-.8.9-1.6,1.3-2.5.4-.9.6-1.7.8-2.7.2-.9.3-1.8.3-2.8s0-1.9-.3-2.8c-.2-.9-.4-1.8-.8-2.7-.4-.9-.8-1.7-1.3-2.4-.5-.8-1.1-1.5-1.8-2.1-.7-.7-1.4-1.2-2.1-1.8-.8-.5-1.6-1-2.4-1.3-.9-.4-1.7-.6-2.6-.8-.9-.2-1.8-.3-2.7-.3s-1.8,0-2.7.3c-.9.2-1.8.5-2.6.8-.9.4-1.7.8-2.4,1.3-.8.5-1.5,1.1-2.1,1.8"/>
</svg>