<?xml version="1.0" encoding="UTF-8"?>
<svg id="Layer_1" xmlns="http://www.w3.org/2000/svg" version="1.1" viewBox="0 0 41.8 42">
  <!-- Generator: Adobe Illustrator 30.2.1, SVG Export Plug-In . SVG Version: 2.1.1 Build 1)  -->
  <defs>
    <style>
      .st0 {
        fill: #fff;
      }
    </style>
  </defs>
  <path class="st0" d="M31.1,16.5c0-.1,0-.3-.1-.4,0-.1-.1-.2-.2-.4,0-.1-.2-.2-.3-.3,0,0-.2-.2-.3-.3-.1,0-.2-.1-.4-.2-.1,0-.3,0-.4-.1-.1,0-.3,0-.4,0-.1,0-.3,0-.4,0-.1,0-.3,0-.4.1-.1,0-.2.1-.4.2-.1,0-.2.2-.3.3,0,0-.2.2-.3.3,0,.1-.1.2-.2.4,0,.1,0,.3-.1.4,0,.1,0,.3,0,.4,0,.1,0,.3,0,.4,0,.1,0,.3-.1.4,0,.1-.1.2-.2.3,0,.1-.2.2-.3.3,0,0-.2.2-.3.2-.1,0-.2.1-.4.2-.1,0-.2,0-.4.1-.1,0-.3,0-.4,0-.1,0-.3,0-.4,0-.1,0-.3,0-.4-.1-.1,0-.2-.1-.3-.2-.1,0-.2-.2-.3-.2,0,0-.2-.2-.3-.3,0-.1-.1-.2-.2-.3,0-.1,0-.2-.1-.4,0-.1,0-.3,0-.4,0-.1,0-.3,0-.4,0-.1,0-.3-.1-.4,0-.1-.1-.2-.2-.3,0-.1-.2-.2-.3-.3,0,0-.2-.2-.3-.2-.1,0-.2-.1-.4-.2-.1,0-.2,0-.4-.1-.1,0-.3,0-.4,0-.1,0-.3,0-.4,0-.1,0-.3,0-.4.1-.1,0-.2.1-.4.2-.1,0-.2.2-.3.2-.1,0-.2.2-.3.3,0,.1-.1.2-.2.3,0,.1,0,.2-.1.4,0,.1,0,.3,0,.4s0,.3,0,.4c0,.1,0,.3-.1.4,0,.1-.1.2-.2.4,0,.1-.2.2-.3.3,0,0-.2.2-.3.3-.1,0-.2.1-.4.2-.1,0-.3,0-.4.1-.1,0-.3,0-.4,0-.1,0-.3,0-.4,0-.1,0-.3,0-.4-.1-.1,0-.2-.1-.4-.2-.1,0-.2-.2-.3-.3,0,0-.2-.2-.3-.3,0-.1-.1-.2-.2-.4,0-.1,0-.3-.1-.4,0-.1,0-.3,0-.4s0-.3,0-.4c0-.1,0-.3-.1-.4,0-.1-.1-.2-.2-.4,0-.1-.2-.2-.3-.3,0,0-.2-.2-.3-.3-.1,0-.2-.1-.4-.2-.1,0-.3,0-.4-.1-.1,0-.3,0-.4,0-.1,0-.3,0-.4,0-.1,0-.3,0-.4.1-.1,0-.2.1-.4.2-.1,0-.2.2-.3.3,0,0-.2.2-.3.3,0,.1-.1.2-.2.4,0,.1,0,.3-.1.4,0,.1,0,.3,0,.4s0,.3,0,.4c0,.1,0,.3.1.4,0,.1.1.2.2.4,0,.1.2.2.3.3,0,0,.2.2.3.3.1,0,.2.1.4.2.1,0,.3,0,.4.1.1,0,.3,0,.4,0h0c.2,0,.5,0,.7.1.2,0,.4.2.6.4.2.2.3.4.5.6.1.2.2.4.2.7v.6c0,.2-.1.5-.2.7-.1.2-.3.4-.5.6-.2.2-.4.3-.6.4-.2,0-.5.1-.7.1h0c-.1,0-.3,0-.4,0-.1,0-.3,0-.4.1-.1,0-.2.1-.4.2-.1,0-.2.2-.3.3,0,0-.2.2-.3.3,0,.1-.1.2-.2.4,0,.1,0,.3-.1.4,0,.1,0,.3,0,.4,0,.1,0,.3,0,.4,0,.1,0,.3.1.4,0,.1.1.2.2.4,0,.1.2.2.3.3,0,0,.2.2.3.2.1,0,.2.1.4.2.1,0,.3,0,.4.1.1,0,.3,0,.4,0,.1,0,.3,0,.4,0,.1,0,.3,0,.4-.1.1,0,.2-.1.4-.2.1,0,.2-.2.3-.3.1,0,.2-.2.3-.3,0-.1.1-.2.2-.4,0-.1,0-.3.1-.4,0-.1,0-.3,0-.4s0-.3,0-.4c0-.1,0-.3.1-.4,0-.1.1-.2.2-.4,0-.1.2-.2.3-.3,0,0,.2-.2.3-.3.1,0,.2-.1.4-.2.1,0,.3,0,.4-.1.1,0,.3,0,.4,0,.1,0,.3,0,.4,0,.1,0,.3,0,.4.1.1,0,.2.1.4.2.1,0,.2.2.3.3.1,0,.2.2.3.3,0,.1.1.2.2.4,0,.1,0,.3.1.4,0,.1,0,.3,0,.4s0,.3,0,.4c0,.1,0,.3.1.4,0,.1.1.2.2.4,0,.1.2.2.3.3,0,0,.2.2.3.3.1,0,.2.1.4.2.1,0,.3,0,.4.1.1,0,.3,0,.4,0,.1,0,.3,0,.4,0,.1,0,.3,0,.4-.1.1,0,.2-.1.4-.2.1,0,.2-.2.3-.3,0,0,.2-.2.3-.3,0-.1.1-.2.2-.4,0-.1,0-.3.1-.4,0-.1,0-.3,0-.4s0-.3,0-.4c0-.1,0-.3-.1-.4,0-.1-.1-.2-.2-.4,0-.1-.2-.2-.2-.3,0,0-.2-.2-.3-.3-.1,0-.2-.1-.4-.2-.1,0-.2,0-.4-.1-.1,0-.3,0-.4,0h0c-.2,0-.5,0-.7-.1-.2,0-.4-.2-.6-.4-.2-.2-.3-.4-.5-.6-.1-.2-.2-.5-.2-.7v-.5c0-.2.1-.5.2-.7.1-.2.3-.4.5-.6.2-.2.4-.3.6-.4.2,0,.5-.1.7-.1.2,0,.5,0,.7.1.2,0,.4.2.6.4.2.2.3.4.5.6.1.2.2.4.2.7v.5h0c0,.1,0,.2,0,.2,0,0,0,0,0,.1h0c0,.1,0,.2,0,.2,0,0,0,0,0,0,0,0,0,0,0,.1,0,0,0,0,0,0h0v.2s0,0,.1.1c0,0,0,0,.1.1.2.2.4.3.7.4.2.1.5.2.8.2h0c.1,0,.3,0,.4,0,.1,0,.3,0,.4.1.1,0,.2.1.4.2.1,0,.2.2.3.3,0,0,.2.2.3.3,0,.1.1.2.2.4,0,.1,0,.3.1.4,0,.1,0,.3,0,.4s0,.3,0,.4c0,.1,0,.3.1.4,0,.1.1.2.2.4,0,.1.2.2.3.3,0,0,.2.2.3.3.1,0,.2.1.4.2s.2,0,.4.1c.1,0,.3,0,.4,0,.1,0,.3,0,.4,0,.1,0,.3,0,.4-.1.1,0,.2-.1.4-.2.1,0,.2-.2.3-.3,0,0,.2-.2.3-.3,0-.1.1-.2.2-.4,0-.1,0-.3.1-.4,0-.1,0-.3,0-.4,0-.1,0-.3,0-.4,0-.1,0-.3-.1-.4,0-.1-.1-.2-.2-.4,0-.1-.2-.2-.3-.3,0,0-.2-.2-.3-.3-.1,0-.2-.1-.4-.2-.1,0-.2,0-.4-.1-.1,0-.3,0-.4,0h0c-.2,0-.5,0-.7-.1-.2,0-.4-.2-.6-.4-.2-.2-.3-.4-.5-.6-.1-.2-.2-.4-.2-.7h0v-.4h0c0-.3.2-.6.4-.8.1-.2.3-.4.5-.6.2-.2.4-.3.6-.4.2,0,.5-.1.7-.1h0c.1,0,.3,0,.4,0,.1,0,.3,0,.4-.1.1,0,.2-.1.3-.2.1,0,.2-.2.3-.3,0,0,.2-.2.3-.3,0-.1.1-.2.2-.4,0-.1,0-.3.1-.4,0-.1,0-.3,0-.4s0-.3,0-.4Z"/>
  <path class="st0" d="M14.9,13.6c0,.1.1.2.2.4,0,.1.2.2.3.3,0,0,.2.2.3.3.1,0,.2.1.4.2.1,0,.3,0,.4.1.1,0,.3,0,.4,0,.1,0,.3,0,.4,0,.1,0,.3,0,.4-.1.1,0,.2-.1.4-.2.1,0,.2-.2.3-.3h0c0,0,.2-.2.3-.3,0-.1.1-.2.2-.4,0-.1,0-.3.1-.4,0-.1,0-.3,0-.4s0-.3,0-.4c0-.1,0-.3-.1-.4,0-.1-.1-.2-.2-.4,0-.1-.2-.2-.3-.3,0,0-.2-.2-.3-.3-.1,0-.2-.1-.4-.2-.1,0-.3,0-.4-.1-.1,0-.3,0-.4,0-.1,0-.3,0-.4,0-.1,0-.3,0-.4.1-.1,0-.2.1-.4.2-.1,0-.2.2-.3.3,0,0-.2.2-.3.3,0,.1-.1.2-.2.4,0,.1,0,.3-.1.4,0,.1,0,.3,0,.4s0,.3,0,.4c0,.1,0,.3.1.4Z"/>
  <path class="st0" d="M19,9.5c0,.1.1.2.2.4,0,.1.2.2.3.3,0,0,.2.2.3.3.1,0,.2.1.4.2.1,0,.3,0,.4.1.1,0,.3,0,.4,0,.1,0,.3,0,.4,0,.1,0,.3,0,.4-.1.1,0,.2-.1.4-.2.1,0,.2-.2.3-.3,0,0,.2-.2.3-.3,0-.1.1-.2.2-.4,0-.1,0-.3.1-.4,0-.1,0-.3,0-.4s0-.3,0-.4c0-.1,0-.3-.1-.4,0-.1-.1-.2-.2-.4,0-.1-.2-.2-.3-.3,0,0-.2-.2-.3-.3-.1,0-.2-.1-.4-.2-.1,0-.3,0-.4-.1-.1,0-.3,0-.4,0-.1,0-.3,0-.4,0-.1,0-.3,0-.4.1-.1,0-.2.1-.4.2-.1,0-.2.2-.3.3,0,0-.2.2-.3.3,0,.1-.1.2-.2.4,0,.1,0,.3-.1.4,0,.1,0,.3,0,.4s0,.3,0,.4c0,.1,0,.3.1.4Z"/>
  <path class="st0" d="M23.1,13.6c0,.1.1.2.2.4,0,.1.2.2.3.3.1,0,.2.2.3.3.1,0,.2.1.4.2.1,0,.3,0,.4.1.1,0,.3,0,.4,0,.1,0,.3,0,.4,0,.1,0,.3,0,.4-.1.1,0,.2-.1.4-.2.1,0,.2-.2.3-.3,0,0,.2-.2.3-.3,0-.1.1-.2.2-.4,0-.1,0-.3.1-.4,0-.1,0-.3,0-.4s0-.3,0-.4c0-.1,0-.3-.1-.4,0-.1-.1-.2-.2-.4,0-.1-.2-.2-.3-.3,0,0-.2-.2-.3-.3-.1,0-.2-.1-.4-.2-.1,0-.3,0-.4-.1-.1,0-.3,0-.4,0-.1,0-.3,0-.4,0-.1,0-.3,0-.4.1-.1,0-.2.1-.4.2-.1,0-.2.2-.3.3,0,0-.2.2-.3.3,0,.1-.1.2-.2.4,0,.1,0,.3-.1.4,0,.1,0,.3,0,.4s0,.3,0,.4c0,.1,0,.3.1.4Z"/>
  <path class="st0" d="M35.2,20.6c0-.1,0-.3-.1-.4,0-.1-.1-.2-.2-.4,0-.1-.2-.2-.3-.3,0,0-.2-.2-.3-.3-.1,0-.2-.1-.4-.2-.1,0-.3,0-.4-.1-.1,0-.3,0-.4,0-.1,0-.3,0-.4,0-.1,0-.3,0-.4.1-.1,0-.2.1-.4.2-.1,0-.2.2-.3.3,0,0-.2.2-.3.3,0,.1-.1.2-.2.4,0,.1,0,.3-.1.4,0,.1,0,.3,0,.4s0,.3,0,.4c0,.1,0,.3.1.4,0,.1.1.2.2.4,0,.1.2.2.3.3,0,0,.2.2.3.3.1,0,.2.1.4.2.1,0,.3,0,.4.1.1,0,.3,0,.4,0,.1,0,.3,0,.4,0,.1,0,.3,0,.4-.1.1,0,.2-.1.4-.2.1,0,.2-.2.3-.3,0,0,.2-.2.3-.3,0-.1.1-.2.2-.4,0-.1,0-.3.1-.4,0-.1,0-.3,0-.4s0-.3,0-.4Z"/>
  <path class="st0" d="M26.9,28.4c0-.1-.1-.2-.2-.4,0-.1-.2-.2-.3-.3,0,0-.2-.2-.3-.3-.1,0-.2-.1-.4-.2-.1,0-.3,0-.4-.1-.1,0-.3,0-.4,0-.1,0-.3,0-.4,0-.1,0-.3,0-.4.1-.1,0-.2.1-.4.2-.1,0-.2.2-.3.3,0,0-.2.2-.3.3,0,.1-.1.2-.2.4,0,.1,0,.3-.1.4,0,.1,0,.3,0,.4s0,.3,0,.4c0,.1,0,.3.1.4,0,.1.1.2.2.4,0,.1.2.2.3.3,0,0,.2.2.3.3.1,0,.2.1.4.2.1,0,.3,0,.4.1.1,0,.3,0,.4,0,.1,0,.3,0,.4,0,.1,0,.3,0,.4-.1.1,0,.2-.1.4-.2.1,0,.2-.2.3-.3,0,0,.2-.2.3-.3,0-.1.1-.2.2-.4,0-.1,0-.3.1-.4,0-.1,0-.3,0-.4s0-.3,0-.4c0-.1,0-.3-.1-.4Z"/>
  <path class="st0" d="M22.8,32.5c0-.1-.1-.2-.2-.4,0-.1-.2-.2-.3-.3,0,0-.2-.2-.3-.3-.1,0-.2-.1-.4-.2-.1,0-.3,0-.4-.1-.1,0-.3,0-.4,0-.1,0-.3,0-.4,0-.1,0-.3,0-.4.1-.1,0-.2.1-.4.2-.1,0-.2.2-.3.3,0,0-.2.2-.3.3,0,.1-.1.2-.2.4,0,.1,0,.3-.1.4,0,.1,0,.3,0,.4s0,.3,0,.4c0,.1,0,.3.1.4,0,.1.1.2.2.4,0,.1.2.2.3.3,0,0,.2.2.3.3.1,0,.2.1.4.2.1,0,.3,0,.4.1.1,0,.3,0,.4,0,.1,0,.3,0,.4,0,.1,0,.3,0,.4-.1.1,0,.2-.1.4-.2.1,0,.2-.2.3-.3,0,0,.2-.2.3-.3,0-.1.1-.2.2-.4,0-.1,0-.3.1-.4,0-.1,0-.3,0-.4s0-.3,0-.4c0-.1,0-.3-.1-.4Z"/>
  <path class="st0" d="M10.7,20.9c0-.1,0-.3,0-.4,0-.1,0-.3-.1-.4,0-.1-.1-.2-.2-.4,0-.1-.2-.2-.3-.3,0,0-.2-.2-.3-.3-.1,0-.2-.1-.4-.2-.1,0-.3,0-.4-.1-.1,0-.3,0-.4,0-.1,0-.3,0-.4,0-.1,0-.3,0-.4.1-.1,0-.2.1-.4.2-.1,0-.2.2-.3.3,0,0-.2.2-.3.3,0,.1-.1.2-.2.4,0,.1,0,.3-.1.4,0,.1,0,.3,0,.4s0,.3,0,.4c0,.1,0,.3.1.4,0,.1.1.2.2.4,0,.1.2.2.3.3,0,0,.2.2.3.3.1,0,.2.1.4.2.1,0,.3,0,.4.1.1,0,.3,0,.4,0,.1,0,.3,0,.4,0,.1,0,.3,0,.4-.1.1,0,.2-.1.4-.2.1,0,.2-.2.3-.3,0,0,.2-.2.3-.3,0-.1.1-.2.2-.4,0-.1,0-.3.1-.4,0-.1,0-.3,0-.4Z"/>
  <path class="st0" d="M18.9,29.2c0-.1,0-.3,0-.4,0-.1,0-.3-.1-.4,0-.1-.1-.2-.2-.4,0-.1-.2-.2-.3-.3,0,0-.2-.2-.3-.3-.1,0-.2-.1-.4-.2-.1,0-.3,0-.4-.1-.1,0-.3,0-.4,0-.1,0-.3,0-.4,0-.1,0-.3,0-.4.1-.1,0-.2.1-.4.2-.1,0-.2.2-.3.3,0,0-.2.2-.3.3,0,.1-.1.2-.2.4,0,.1,0,.3-.1.4,0,.1,0,.3,0,.4s0,.3,0,.4c0,.1,0,.3.1.4,0,.1.1.2.2.4,0,.1.2.2.3.3,0,0,.2.2.3.3.1,0,.2.1.4.2.1,0,.3,0,.4.1.1,0,.3,0,.4,0,.1,0,.3,0,.4,0,.1,0,.3,0,.4-.1.1,0,.2-.1.4-.2.1,0,.2-.2.3-.3,0,0,.2-.2.3-.3,0-.1.1-.2.2-.4,0-.1,0-.3.1-.4,0-.1,0-.3,0-.4Z"/>
</svg>